<svg id="Layer_1" data-name="Layer 1" xmlns="http://www.w3.org/2000/svg" viewBox="0 0 818.29 179.4"><defs><style>.cls-1,.cls-2{fill:#fff;}.cls-2{fill-rule:evenodd;}</style></defs><title>Control4</title><path class="cls-1" d="M71.62,288.17v-0.3c0-29.61,23.24-54.15,55.59-54.15,19.94,0,31.88,6.73,42.87,16.6L161.6,259c-9.26-8.38-19.63-14.36-34.54-14.36-24.34,0-42.56,18.85-42.56,42.93v0.3c0,24.23,18.37,43.23,42.56,43.23,15.07,0,25-5.54,35.49-15.11l8.16,7.63c-11.46,11.07-24,18.4-44,18.4C95,342,71.62,318.24,71.62,288.17" transform="translate(-71.62 -195.05)"/><path class="cls-1" d="M194.59,301.93v-0.3c0-21.84,17.9-40.39,42.4-40.39,24.34,0,42.24,18.25,42.24,40.09v0.3c0,21.84-18.06,40.39-42.56,40.39-24.34,0-42.08-18.25-42.08-40.09m72.24,0v-0.3a29.94,29.94,0,0,0-30.15-30.22C219.09,271.42,207,285,207,301.33v0.3a29.68,29.68,0,0,0,30,30.06c17.59,0,29.84-13.46,29.84-29.77" transform="translate(-71.62 -195.05)"/><path class="cls-1" d="M306.66,262.89h12.09v13.46c5.34-8.38,13.82-15.1,27.8-15.1,19.63,0,31.09,12.56,31.09,31v48H365.55V295.06c0-14.36-8.17-23.33-22.46-23.33-14,0-24.34,9.72-24.34,24.23v44.28H306.66V262.89" transform="translate(-71.62 -195.05)"/><path class="cls-1" d="M416.49,319.73V273.07h-11.3V262.89h11.3V239.56h12.09v23.33h25.75v10.18H428.58v45.17c0,9.42,5.5,12.87,13.66,12.87a26.48,26.48,0,0,0,11.78-2.7v9.87a31.65,31.65,0,0,1-14.61,3.29c-13,0-22.93-6.13-22.93-21.84" transform="translate(-71.62 -195.05)"/><path class="cls-1" d="M481.3,262.89h12.09v20.19c6-12.86,17.74-22.13,33.13-21.54V274h-0.94c-17.75,0-32.19,12.11-32.19,35.45v30.81H481.3V262.89" transform="translate(-71.62 -195.05)"/><path class="cls-1" d="M542,301.93v-0.3c0-21.84,17.9-40.39,42.4-40.39,24.34,0,42.24,18.25,42.24,40.09v0.3c0,21.84-18.06,40.39-42.56,40.39C559.77,342,542,323.77,542,301.93m72.23,0v-0.3a29.94,29.94,0,0,0-30.15-30.22c-17.59,0-29.68,13.61-29.68,29.92v0.3a29.68,29.68,0,0,0,30,30.06c17.59,0,29.84-13.46,29.84-29.77" transform="translate(-71.62 -195.05)"/><rect class="cls-1" x="583.58" y="35.99" width="12.09" height="109.19"/><polygon class="cls-2" points="682.8 114.42 742.58 114.44 742.58 151.69 760.88 151.69 760.88 99.07 703.42 99.11 752.17 31.73 729.38 31.73 678.56 102.37 682.8 114.42"/><path class="cls-2" d="M817.85,370.67a96.59,96.59,0,0,1-18.62,1.63A83.67,83.67,0,1,1,879.54,265a89.78,89.78,0,1,0-61.69,105.62" transform="translate(-71.62 -195.05)"/><path class="cls-1" d="M872.86,220.54v0a8.53,8.53,0,1,1,17.05,0v0A8.53,8.53,0,1,1,872.86,220.54Zm16.07,0v0a7.55,7.55,0,1,0-15.09,0v0A7.55,7.55,0,1,0,888.93,220.49ZM878.2,216H882c1.76,0,3.19.93,3.19,2.65a2.64,2.64,0,0,1-2.11,2.6l2.4,3.33h-1.71l-2.16-3.14h-2.06v3.14H878.2V216Zm3.67,4.31a1.63,1.63,0,0,0,1.91-1.57c0-1-.73-1.52-1.91-1.52h-2.3v3.09h2.3Z" transform="translate(-71.62 -195.05)"/></svg>