<svg id="Logo" xmlns="http://www.w3.org/2000/svg" viewBox="0 0 864 864"><defs><style>.cls-1{fill:#feb800;}.cls-2{fill:#d21d00;}</style></defs><title>Judge Memorial</title><g id="Lettering"><g id="J_-_Back" data-name="J - Back"><polygon points="550.25 174.21 591.36 174.21 591.36 6.9 302.1 6.9 302.1 174.21 361.84 174.21 361.83 566.39 412.07 648.88 502.7 648.89 550.25 567.13 550.25 174.21"/><polygon class="cls-1" points="498.41 122.96 544.15 122.96 544.17 57.42 350.16 57.42 350.18 122.96 411.42 122.96 411.42 599.39 394.73 620.4 412.07 648.88 478.58 648.89 498.4 628.71 498.41 122.96"/></g><g id="M"><polygon id="Background" points="576.31 522.17 502.61 648.89 411.98 648.88 334.81 522.17 334.81 693.23 380.58 693.23 380.58 857.27 121.75 857.27 121.75 693.23 161.59 693.23 161.59 378.7 121.75 378.7 121.75 210.43 334.82 210.43 456.85 403.01 571.78 210.43 794.33 210.43 794.33 377.98 749.99 377.99 749.99 693.23 794.33 693.23 794.33 857.27 529.06 857.27 528.7 693.23 576.31 693.23 576.31 522.17"/><polygon id="Foreground" class="cls-1" points="458.55 504.89 307.86 261.08 172.37 261.08 172.37 327.49 213.48 327.49 213.49 743.29 172.37 743.29 172.37 806.62 329.67 806.62 329.67 743.29 284.28 743.29 284.26 333.65 438.35 597.13 475.88 597.13 626.03 333.65 625.68 743.29 577.95 743.29 577.95 806.62 742.58 806.62 742.58 743.29 697.53 743.29 697.89 327.49 743.65 327.49 743.65 261.08 601.01 261.08 458.55 504.89"/></g><g id="J_-_Front" data-name="J - Front"><polygon id="Background-2" data-name="Background" points="439.78 759.79 550.25 646.11 550.25 567.13 502.7 648.89 412.07 648.88 361.83 566.39 361.83 586.29 343.49 595.97 257.21 595.97 248.86 586.28 248.87 495.72 69.41 495.73 69.41 646.09 175.23 759.79 439.78 759.79"/><polyline id="Foreground-2" data-name="Foreground" class="cls-1" points="195.25 708.07 420.47 708.07 478.58 648.89 412.07 648.88 394.73 620.4 375.43 644.68 238.15 645.15 198.58 608.69 198.35 546.48 118.03 546.25 118.03 627.28"/></g></g><g id="Cross"><polygon id="Background-3" data-name="Background" points="597.78 314.18 597.78 264.23 487.68 264.23 487.69 130.18 428.38 130.18 428.38 264.23 317.63 264.23 317.63 314.18 428.38 314.18 428.38 547.44 441.56 588.62 473.74 588.62 487.69 547.44 487.69 314.18 597.78 314.18"/><polygon id="Foreground-3" data-name="Foreground" class="cls-2" points="480.65 307.07 588.97 307.07 588.97 271.44 480.65 271.44 480.65 139.05 435.43 139.05 435.43 271.44 324.43 271.44 324.43 307.07 435.43 307.07 435.43 545.65 446.45 581.64 468.62 581.64 480.65 545.65 480.65 307.07"/></g></svg>