<svg id="Body" xmlns="http://www.w3.org/2000/svg" viewBox="0 0 254.37 451.47"><defs><style>.cls-1,.cls-6{fill:#feb900;stroke-width:4px;}.cls-1,.cls-7{stroke:#000;}.cls-1,.cls-2,.cls-3,.cls-4,.cls-6,.cls-7,.cls-8{stroke-miterlimit:10;}.cls-2{fill:#0064b9;}.cls-2,.cls-3,.cls-4{stroke:#a8a9ad;stroke-width:5px;}.cls-3{fill:#fff;}.cls-4{fill:#ed2216;}.cls-5{fill:#d21d00;}.cls-6{stroke:#231f20;stroke-linecap:round;}.cls-7{fill:#4d4d4d;stroke-width:3px;}.cls-8{fill:none;stroke:#3cc;}</style></defs><title>JudgeMent Call Logo</title><g id="Background"><path class="cls-1" d="M502.79,312.56h0c96.15,2.09,154,107.49,104.1,189.71L503.5,672.66a10,10,0,0,1-17.32-.38L390.42,497.76C344.11,413.35,406.54,310.47,502.79,312.56Z" transform="translate(-372.81 -228)"/></g><g id="Buttons"><g id="FRC"><rect class="cls-2" x="161" y="130.9" width="46.2" height="46.2"/><circle class="cls-3" cx="122.19" cy="154" r="23.1"/><polygon class="cls-4" points="43.08 177.1 89.28 177.1 66.18 130.9 43.08 177.1"/></g><g id="JM"><g id="Cross"><polygon points="137.17 197.45 107.53 197.45 107.53 264.44 52.19 264.44 52.19 289.4 107.53 289.4 107.53 405.97 114.12 426.55 130.2 426.55 137.17 405.97 137.17 289.4 192.19 289.4 192.19 264.44 137.17 264.44 137.17 197.45"/><polygon class="cls-5" points="133.65 201.88 111.06 201.88 111.06 268.04 55.59 268.04 55.59 285.85 111.06 285.85 111.06 405.07 116.56 423.06 127.64 423.06 133.65 405.07 133.65 285.85 187.78 285.85 187.78 268.04 133.65 268.04 133.65 201.88"/></g></g></g><g id="Background-2" data-name="Background"><path class="cls-6" d="M420,300c0,7.56,8,19.1,14.73,15.55A136.71,136.71,0,0,1,500,300c36,0.32,54.9,9.62,65.32,15,6.7,3.46,14.68-7.46,14.68-15v-5s2.6-65-80.5-65S420,295,420,295v5Z" transform="translate(-372.81 -228)"/></g><g id="Eyes"><path class="cls-7" d="M551.22,287.88L450.67,295a9.63,9.63,0,0,1-10.33-8.81L439,269.46a9.63,9.63,0,0,1,8.81-10.33l100.49-7.94A9.63,9.63,0,0,1,558.65,260L560,276.76C560.39,282,556.48,287.46,551.22,287.88Z" transform="translate(-372.81 -228)"/><polyline class="cls-8" points="67.17 50.4 74.61 49.81 80.87 34.27 98.11 63 104.37 47.46 112.28 52.85 118.77 40.3 127.16 51.67 133.65 39.13 142.04 50.5 149 43.93 157.62 58.3 170.14 27.21 178.76 41.58 186.2 40.99"/></g></svg>